<svg xmlns="http://www.w3.org/2000/svg" viewBox="0 0 298.21 298.21"><defs><style>.cls-1{fill:#005cff;}.cls-2{fill:#fff;}</style></defs><title>资源 2</title><g id="图层_2" data-name="图层 2"><g id="图层_1-2" data-name="图层 1"><rect class="cls-1" width="298.21" height="298.21" rx="27.57"/><path class="cls-2" d="M190.55,149.11v42.53h0v63H241a12.45,12.45,0,0,0,9.64-4.61,12.66,12.66,0,0,0,2.87-8V149.11a106.08,106.08,0,0,0-1.62-18.47H186.37A42.66,42.66,0,0,1,190.55,149.11Z"/><path class="cls-2" d="M44.66,149.14V242a12.66,12.66,0,0,0,2.87,8,12.45,12.45,0,0,0,9.65,4.61h50.49v-63h0v-42.5a42.66,42.66,0,0,1,4.19-18.5H46.29A105.46,105.46,0,0,0,44.66,149.14Z"/><path class="cls-2" d="M226.34,78.24c-1.13-1.25-2.28-2.47-3.47-3.67l-1.79-1.77c-1.3-1.25-2.63-2.46-4-3.65C215.42,67.7,213.7,66.3,212,65c-.82-.63-1.64-1.25-2.48-1.85-.68-.49-1.37-1-2.07-1.45-2.08-1.42-4.22-2.78-6.41-4a102.72,102.72,0,0,0-51.87-14h0a102.58,102.58,0,0,0-33.41,5.57A103.7,103.7,0,0,0,92.93,60.27c-1.13.72-2.23,1.48-3.32,2.25-.79.56-1.58,1.13-2.35,1.7l-1,.74q-2.64,2-5.14,4.2Q77.2,72.6,73.6,76.4A106.3,106.3,0,0,0,55.71,102H242.52A107,107,0,0,0,226.34,78.24Z"/><rect class="cls-2" x="84.41" y="162.17" width="90.89" height="45.28" rx="22.64"/></g></g></svg>